<?xml version="1.0" encoding="UTF-8" standalone="no"?>
<!DOCTYPE svg PUBLIC "-//W3C//DTD SVG 1.1//EN" "http://www.w3.org/Graphics/SVG/1.1/DTD/svg11.dtd">
<svg width="100%" height="100%" viewBox="0 0 1254 1254" version="1.1" xmlns="http://www.w3.org/2000/svg" xmlns:xlink="http://www.w3.org/1999/xlink" xml:space="preserve" xmlns:serif="http://www.serif.com/" style="fill-rule:evenodd;clip-rule:evenodd;stroke-linejoin:round;stroke-miterlimit:2;">
    <g transform="matrix(1.224609,0,0,1.224609,0,0)">
        <path d="M993.5,1023.999L0,1023.999C-1.399,1022.345 0,1019.666 0,1017.5L0,0C2.148,-1.157 2.338,0 30.5,0L1023.999,0C1025.156,2.148 1023.999,2.338 1023.999,30.5L1023.999,1023.999C1021.851,1025.156 1021.661,1023.999 993.5,1023.999Z"/>
    </g>
    <g transform="matrix(1,0,0,1,-23.513713,6.117232)">
        <g transform="matrix(1.861026,0,0,1.861026,-338.065282,-331.024678)">
            <path d="M334.08,686.5C334.078,704.028 340.361,758.238 288.334,788.217C283.288,791.125 269.744,796.798 266.623,794.331C264.364,792.546 264.953,791.915 264.904,753.499C264.482,421.246 263.653,421.122 267.786,392.542C286.152,265.52 407.55,163.967 556.427,193.861C670.751,216.817 751.408,324.242 736.619,429.52C735.443,437.89 730.74,471.37 664.599,506.833C658.452,510.128 667.524,502.384 673.515,462.502C686.972,372.923 628.136,269.707 518.473,260.921C429.857,253.822 334.269,317.065 334.078,438.499C334.079,521.166 334.08,603.833 334.08,686.5Z" style="fill:rgb(249,177,4);"/>
        </g>
        <g transform="matrix(1.861026,0,0,1.861026,-338.065282,-331.024678)">
            <path d="M693.481,667.939C687.161,667.193 687.19,667.261 686.656,667.133C682.195,666.059 695.379,658.654 696.299,658.138C738.519,634.423 724.256,587.556 692.449,584.973C656.009,582.012 646.076,623.078 645.206,624.298C644.593,625.157 636.477,633.449 636.474,633.45C633.254,634.52 628.319,616.101 629.542,600.504C633.836,545.732 699.527,518.612 730.626,487.631C780.48,437.965 767.599,394.327 775.618,411.438C776.918,414.21 812.311,479.182 769.067,552.241C757.149,572.376 746.219,578.882 755.561,575.77C790.064,564.276 794.588,546.067 797.548,549.468C798.977,551.11 797.326,615.987 752.783,648.888C728.228,667.026 710.756,668.285 693.481,667.939Z" style="fill:rgb(249,182,4);"/>
        </g>
        <g transform="matrix(1.861026,0,0,1.861026,-338.065282,-331.024678)">
            <path d="M495.439,342.751C501.199,345.29 500.259,346.628 558.063,420.851C586.324,457.139 586.736,457.772 585.571,461.523C584.938,463.56 534.476,528.001 501.95,569.86C495.979,577.544 494.48,575.872 474.502,575.894C428.626,575.943 425.08,576.897 425.858,571.536C426.303,568.466 450.729,537.828 460.059,525.186C476.697,502.641 508.586,463.043 508.901,459.539C509.33,454.773 492.894,437.104 483.088,422.788C480.032,418.327 479.443,418.881 441.96,369.144C429.328,352.382 419.005,342.671 431.497,342.418C436.611,342.315 477.524,341.489 495.439,342.751Z" style="fill:rgb(249,169,4);"/>
        </g>
        <g transform="matrix(1.861026,0,0,1.861026,-338.065282,-331.024678)">
            <path d="M503.522,832.478C496.265,824.954 489.189,819.534 489.615,817.538C489.752,816.899 625.691,669.375 648.755,644.73C658.356,634.471 659.296,634.952 661.607,627.533C673.453,589.497 704.553,598.023 706.531,616.497C708.65,636.293 683.493,646.845 679.754,648.968C674.931,651.706 546.252,793.667 514.766,826.753C508.756,833.068 508.229,836.928 503.522,832.478Z" style="fill:rgb(248,177,3);"/>
        </g>
    </g>
</svg>
